<svg id="Слой_1" data-name="Слой 1" xmlns="http://www.w3.org/2000/svg" viewBox="0 0 25 20"><defs><style>.cls-1{fill:#fff;}</style></defs><title>letter</title><path class="cls-1" d="M22.5,0H2.5A2.5,2.5,0,0,0,0,2.5v15A2.51,2.51,0,0,0,2.5,20h20A2.51,2.51,0,0,0,25,17.5V2.5A2.5,2.5,0,0,0,22.5,0ZM22,5.31l-8.84,5.53a1.26,1.26,0,0,1-1.32,0L3,5.31A.87.87,0,0,1,2.68,5a1,1,0,0,1-.19-.38,1.25,1.25,0,0,1,0-.43,1,1,0,0,1,.15-.4,1.42,1.42,0,0,1,.29-.31.94.94,0,0,1,.4-.16,1.19,1.19,0,0,1,.42,0,1.18,1.18,0,0,1,.4.17L12.5,8.75l8.38-5.24a1.05,1.05,0,0,1,.39-.17,1.19,1.19,0,0,1,.42,0,.94.94,0,0,1,.4.16,1.42,1.42,0,0,1,.29.31,1,1,0,0,1,.15.4,1.25,1.25,0,0,1,0,.43,1,1,0,0,1-.19.38A.87.87,0,0,1,22,5.31Z" transform="translate(0 0)"/></svg>