<svg id="Слой_1" data-name="Слой 1" xmlns="http://www.w3.org/2000/svg" viewBox="0 0 108 30"><defs><style>.cls-1{fill:#3d348b;fill-rule:evenodd;}</style></defs><title>logo</title><path class="cls-1" d="M102,30,98.36,15.58c-.44-1.73-.72-3.46-1-5.05H97.2c-.29,1.73-.44,3.32-.87,5.19L92.7,30H86.46L94.73,0h4.94l8.71,30ZM6.77,0l3.62,14.42a33.49,33.49,0,0,1,1,5h.15c.29-1.73.43-3.46.87-5.19L16.06,0H22.3L14,30H9.09L.38,0Zm20,0h5.95V30H26.8ZM66.43,0l3,17.74L71.94,0h8l3,30H76.88L75.43,8.37l-1,7.35L71.94,30H67.3L64.39,15.58l-1-6.64V8.37h-.15L62.36,30H56L58.59,0ZM47.56,0a8,8,0,0,0-2.33,3.32c-1.59,3.6.15,6.49,1.6,9.08a7.81,7.81,0,0,1,.58,1.16c3.34,5.48,4.5,9.52,2.18,15.28L49,30H41.75a7.29,7.29,0,0,0,2.18-2.89c1.74-3.89-.29-7.5-2.18-11.1-2.18-4.18-4.5-8.51-2-14.42A8.54,8.54,0,0,1,40.44,0Z" transform="translate(-0.38)"/></svg>