<svg id="Слой_1" data-name="Слой 1" xmlns="http://www.w3.org/2000/svg" viewBox="0 0 108 30"><defs><style>.cls-1{fill:#fff;fill-rule:evenodd;}</style></defs><title>logo__wight</title><path class="cls-1" d="M101.61,30,98,15.58c-.43-1.73-.72-3.46-1-5.05h-.15c-.29,1.73-.43,3.32-.87,5.19L92.32,30H86.08L94.35,0h4.94L108,30ZM6.39,0,10,14.42a34.69,34.69,0,0,1,1,5h.15c.29-1.73.43-3.46.87-5.19L15.68,0h6.24L13.65,30H8.71L0,0Zm20,0h5.95V30H26.42ZM66.05,0l3,17.74L71.56,0h8l3,30H76.5L75.05,8.37l-1,7.35L71.56,30H66.92L64,15.58,63,8.94V8.37h-.15L62,30H55.6L58.21,0ZM47.18,0a8,8,0,0,0-2.32,3.32c-1.6,3.6.14,6.49,1.59,9.08A7.81,7.81,0,0,1,47,13.56c3.34,5.48,4.5,9.52,2.18,15.28L48.63,30H41.37a7.29,7.29,0,0,0,2.18-2.89c1.74-3.89-.29-7.5-2.18-11.1-2.18-4.18-4.5-8.51-2-14.42A8.35,8.35,0,0,1,40.07,0Z"/></svg>