<svg id="Слой_1" data-name="Слой 1" xmlns="http://www.w3.org/2000/svg" viewBox="0 0 20.63 26.25"><defs><style>.cls-1{fill:#fff;}</style></defs><title>Point</title><path class="cls-1" d="M10.31,0A10.31,10.31,0,0,0,0,10.31,10.23,10.23,0,0,0,2.08,16.5l.32.42,7.91,9.33,7.91-9.33c.05-.05.33-.42.33-.42h0a10.23,10.23,0,0,0,2.08-6.19A10.33,10.33,0,0,0,10.31,0Zm0,14.06a3.77,3.77,0,0,1-2.08-.63,3.71,3.71,0,0,1-1.38-1.68,3.75,3.75,0,0,1-.22-2.17,3.77,3.77,0,0,1,3-2.95,3.75,3.75,0,0,1,2.17.22,3.71,3.71,0,0,1,1.68,1.38,3.77,3.77,0,0,1,.63,2.08,3.76,3.76,0,0,1-3.75,3.75Z"/></svg>